#N canvas 0 0 1362 686 12;
#N canvas 0 0 1366 686 snare 0;
#X obj 617 -89 inlet;
#X obj 923 305 pack 0 0;
#X obj 923 334 line~;
#X obj 805 464 *~;
#X obj 1040 588 *~;
#X obj 1134 530 / 100;
#X obj 1134 483 inlet;
#X obj 1030 644 dac~;
#X obj 624 41 noise~;
#X obj 625 205 vcf~;
#X floatatom 639 111 5 0 0 0 - - -;
#X floatatom 690 140 5 0 0 0 - - -;
#X obj 690 162 / 100;
#X obj 395 338 / 100;
#X floatatom 291 64 5 0 0 0 - - -;
#X obj 291 373 *~;
#X floatatom 395 317 5 0 0 0 - - -;
#X obj 291 197 osc~;
#X obj 421 167 mtof;
#X obj 344 165 mtof;
#X obj 291 168 mtof;
#X obj 807 611 delwrite~ snareline 500;
#X obj 1015 353 delread~ snareline;
#X floatatom 1015 332 5 0 0 0 - - -;
#X obj 1014 471 *~;
#X floatatom 1037 426 5 0 0 0 - - -;
#X obj 806 528 +~;
#X obj 1035 446 / 100;
#X obj 344 139 + 14;
#X obj 291 141 + 12;
#X msg 923 254 1 0;
#X obj 421 195 phasor~;
#X obj 344 195 phasor~;
#X obj 291 34 inlet;
#X obj 654 342 *~;
#X floatatom 697 289 5 0 0 0 - - -;
#X obj 697 311 / 100;
#X obj 395 271 loadbang;
#X obj 697 243 loadbang;
#X obj 690 94 loadbang;
#X obj 639 64 loadbang;
#X obj 1015 285 loadbang;
#X obj 1037 380 loadbang;
#X obj 485 307 pack 0 0;
#X obj 485 336 line~;
#X msg 485 256 1 0;
#X obj 617 -64 bng 15 250 50 0 empty empty empty 17 7 0 10 -262144
-1 -1;
#X obj 923 4 bng 15 250 50 0 empty empty empty 17 7 0 10 -262144 -1
-1;
#X obj 536 10 bng 15 250 50 0 empty empty empty 17 7 0 10 -262144 -1
-1;
#X obj 536 176 delay 10;
#X obj 293 440 *~;
#X obj 974 174 delay 10;
#X msg 974 254 0 50;
#X msg 536 256 0 50;
#X obj 18 365 / 100;
#X floatatom -37 105 5 0 0 0 - - -;
#X obj -37 414 *~;
#X floatatom 18 344 5 0 0 0 - - -;
#X obj -37 209 osc~;
#X obj 18 298 loadbang;
#X obj 157 348 pack 0 0;
#X obj 157 377 line~;
#X msg 157 297 1 0;
#X obj 208 10 bng 15 250 50 0 empty empty empty 17 7 0 10 -262144 -1
-1;
#X obj 208 217 delay 10;
#X obj -36 476 *~;
#X msg 208 297 0 50;
#X obj -37 58 loadbang;
#X msg 1037 403 4;
#X msg 1015 308 100;
#X msg 18 321 30;
#X msg 690 117 48;
#X msg 639 87 1950;
#X msg 697 266 170;
#X msg 395 295 20;
#X msg -37 81 62;
#X connect 0 0 46 0;
#X connect 1 0 2 0;
#X connect 2 0 3 1;
#X connect 3 0 26 0;
#X connect 4 0 7 0;
#X connect 4 0 7 1;
#X connect 5 0 4 1;
#X connect 6 0 5 0;
#X connect 8 0 9 0;
#X connect 9 1 34 0;
#X connect 10 0 9 1;
#X connect 11 0 12 0;
#X connect 12 0 9 2;
#X connect 13 0 15 1;
#X connect 14 0 18 0;
#X connect 14 0 28 0;
#X connect 14 0 29 0;
#X connect 15 0 50 0;
#X connect 16 0 13 0;
#X connect 17 0 15 0;
#X connect 18 0 31 0;
#X connect 19 0 32 0;
#X connect 20 0 17 0;
#X connect 22 0 24 0;
#X connect 23 0 22 0;
#X connect 24 0 26 0;
#X connect 25 0 27 0;
#X connect 26 0 21 0;
#X connect 26 0 4 0;
#X connect 27 0 24 1;
#X connect 28 0 19 0;
#X connect 29 0 20 0;
#X connect 30 0 1 0;
#X connect 31 0 15 0;
#X connect 32 0 15 0;
#X connect 33 0 14 0;
#X connect 34 0 3 0;
#X connect 35 0 36 0;
#X connect 36 0 34 1;
#X connect 37 0 74 0;
#X connect 38 0 73 0;
#X connect 39 0 71 0;
#X connect 40 0 72 0;
#X connect 41 0 69 0;
#X connect 42 0 68 0;
#X connect 43 0 44 0;
#X connect 44 0 50 1;
#X connect 45 0 43 0;
#X connect 46 0 47 0;
#X connect 46 0 48 0;
#X connect 46 0 63 0;
#X connect 47 0 30 0;
#X connect 47 0 51 0;
#X connect 48 0 45 0;
#X connect 48 0 49 0;
#X connect 49 0 53 0;
#X connect 50 0 26 0;
#X connect 51 0 52 0;
#X connect 52 0 1 0;
#X connect 53 0 43 0;
#X connect 54 0 56 1;
#X connect 55 0 58 0;
#X connect 56 0 65 0;
#X connect 57 0 54 0;
#X connect 58 0 56 0;
#X connect 59 0 70 0;
#X connect 60 0 61 0;
#X connect 61 0 65 1;
#X connect 62 0 60 0;
#X connect 63 0 62 0;
#X connect 63 0 64 0;
#X connect 64 0 66 0;
#X connect 65 0 26 0;
#X connect 66 0 60 0;
#X connect 67 0 75 0;
#X connect 68 0 25 0;
#X connect 69 0 23 0;
#X connect 70 0 57 0;
#X connect 71 0 11 0;
#X connect 72 0 10 0;
#X connect 73 0 35 0;
#X connect 74 0 16 0;
#X connect 75 0 55 0;
#X restore 404 504 pd snare;
#X obj 434 468 bng 15 250 50 0 empty empty empty 17 7 0 10 -262144
-1 -1;
#X floatatom 465 468 5 0 0 0 - - -;
#X floatatom 384 464 5 0 0 0 - - -;
#X obj 61 74 hradio 15 1 0 2 empty empty empty 0 -8 0 10 -262144 -1
-1 1;
#X obj 434 369 tabread snare;
#X floatatom 434 393 5 0 0 0 - - -;
#X floatatom 393 11 5 0 0 0 - - -;
#X obj 356 65 bng 15 250 50 0 empty empty empty 17 7 0 10 -262144 -1
-1;
#N canvas 0 0 450 300 counter 0;
#X obj 98 46 inlet;
#X obj 98 84 f;
#X obj 144 84 + 1;
#X obj 98 125 outlet;
#X msg 16 112 1;
#X obj 16 85 select 32;
#X connect 0 0 1 0;
#X connect 1 0 2 0;
#X connect 1 0 3 0;
#X connect 1 0 5 0;
#X connect 2 0 1 1;
#X connect 4 0 1 1;
#X connect 5 0 4 0;
#X restore 356 84 pd counter;
#X obj 356 40 metro;
#X obj 356 -53 tgl 15 0 empty empty empty 17 7 0 10 -262144 -1 -1 0
1;
#X floatatom 356 106 5 0 0 0 - - -;
#X obj 434 412 select 1;
#N canvas 0 0 450 300 (subpatch) 0;
#X array kick 32 float 3;
#A 0 0 0 0 0 0 0 0 0 0 0 0 0 1 0 1 0 0 0 0 0 0 0 0 0 0 0 0 0 0 0 1
0;
#X coords 0 1 32 0 200 20 1 0 0;
#X restore 636 148 graph;
#X obj 61 94 tabwrite snare;
#N canvas 0 0 450 300 (subpatch) 0;
#X array snare 32 float 3;
#A 0 0 0 1 0 0 0 0 0 0 0 1 0 0 0 0 0 0 0 1 0 0 0 0 0 0 0 1 0 0 0 0
0;
#X coords 0 1 32 0 200 20 1 0 0;
#X restore 636 108 graph;
#N canvas 0 0 1366 686 kick 0;
#X obj 327 46 inlet;
#X obj 441 259 pack 0 0;
#X obj 441 314 line~;
#X obj 346 359 *~;
#X obj 346 277 osc~;
#X floatatom 346 248 5 0 0 0 - - -;
#X msg 346 219 45;
#X obj 346 187 loadbang;
#X obj 603 49 inlet;
#X obj 346 514 *~;
#X obj 437 484 line~;
#X obj 437 459 pack 0 30;
#X obj 437 434 dbtorms;
#X obj 437 396 inlet;
#X obj 345 556 dac~;
#X obj 441 130 bng 15 250 50 0 empty empty empty 17 7 0 10 -262144
-1 -1;
#X msg 504 206 0 250;
#X obj 504 178 delay 15;
#X obj 89 316 osc~;
#X obj 171 271 pack 0 0;
#X obj 171 306 line~;
#X floatatom 89 296 5 0 0 0 - - -;
#X msg 89 272 45;
#X obj 89 247 loadbang;
#X obj 88 432 *~;
#X obj 236 91 bng 15 250 50 0 empty empty empty 17 7 0 10 -262144 -1
-1;
#X obj 236 151 bng 15 250 50 0 empty empty empty 17 7 0 10 -262144
-1 -1;
#X obj 236 125 delay 50;
#X msg 236 174 0 30;
#X obj 327 71 bng 15 250 50 0 empty empty empty 17 7 0 10 -262144 -1
-1;
#X msg 171 202 1 0.5;
#X msg 441 199 1 0.5;
#X connect 0 0 29 0;
#X connect 1 0 2 0;
#X connect 2 0 3 1;
#X connect 3 0 9 0;
#X connect 4 0 3 0;
#X connect 5 0 4 0;
#X connect 6 0 5 0;
#X connect 7 0 6 0;
#X connect 8 0 5 0;
#X connect 9 0 14 0;
#X connect 9 0 14 1;
#X connect 10 0 9 1;
#X connect 11 0 10 0;
#X connect 12 0 11 0;
#X connect 13 0 12 0;
#X connect 15 0 31 0;
#X connect 15 0 17 0;
#X connect 16 0 1 0;
#X connect 17 0 16 0;
#X connect 18 0 24 0;
#X connect 19 0 20 0;
#X connect 20 0 24 1;
#X connect 21 0 18 0;
#X connect 22 0 21 0;
#X connect 23 0 22 0;
#X connect 24 0 9 0;
#X connect 25 0 30 0;
#X connect 25 0 27 0;
#X connect 26 0 28 0;
#X connect 27 0 26 0;
#X connect 28 0 19 0;
#X connect 29 0 15 0;
#X connect 29 0 25 0;
#X connect 30 0 19 0;
#X connect 31 0 1 0;
#X restore 563 503 pd kick;
#X obj 563 451 bng 15 250 50 0 empty empty empty 17 7 0 10 -262144
-1 -1;
#X floatatom 589 453 5 0 0 0 - - -;
#X text 383 444 pitch;
#X text 464 451 volume;
#X floatatom 639 470 5 0 0 0 - - -;
#X text 643 449 pitch;
#X text 588 435 volume;
#N canvas 0 0 450 300 time 0;
#X obj 82 0 inlet;
#X obj 82 94 float;
#X obj 134 95 + 1;
#X obj 8 81 select 4;
#X obj 82 133 outlet;
#X obj 82 36 bng 15 250 50 0 empty empty empty 17 7 0 10 -262144 -1
-1;
#X msg 8 108 1;
#X msg 123 56 1;
#X obj 124 33 loadbang;
#X connect 0 0 5 0;
#X connect 1 0 2 0;
#X connect 1 0 3 0;
#X connect 1 0 4 0;
#X connect 2 0 1 1;
#X connect 3 0 6 0;
#X connect 5 0 1 0;
#X connect 6 0 1 1;
#X connect 7 0 1 1;
#X connect 8 0 7 0;
#X restore 506 176 pd time;
#X floatatom 506 201 10 0 0 1 - - -;
#X obj 61 118 hradio 15 1 0 2 empty empty empty 0 -8 0 10 -262144 -1
-1 1;
#X floatatom 563 393 5 0 0 0 - - -;
#X obj 563 413 select 1;
#X obj 61 138 tabwrite kick;
#X obj 563 369 tabread kick;
#N canvas 0 0 1366 686 hihatclosed 0;
#X obj 163 116 noise~;
#X obj 374 -32 inlet;
#X obj 374 302 pack 0 0;
#X obj 374 329 line~;
#X obj 374 4 bng 15 250 50 0 empty empty empty 17 7 0 10 -262144 -1
-1;
#X obj 355 534 *~;
#X obj 431 497 line~;
#X obj 431 474 pack 0 30;
#X obj 431 450 dbtorms;
#X obj 431 425 inlet;
#X obj 356 604 dac~;
#X obj 354 387 *~;
#X floatatom 173 206 5 0 0 0 - - -;
#X msg 374 209 1 0;
#X obj 430 210 delay 3;
#X obj 163 253 bp~;
#X floatatom 247 188 5 0 0 0 - - -;
#X obj 247 210 / 100;
#X msg 430 238 0 40;
#X obj 163 299 *~;
#X obj 302 239 osc~;
#X floatatom 302 219 5 0 0 0 - - -;
#X obj -109 327 *~;
#X floatatom -110 176 5 0 0 0 - - -;
#X floatatom -74 273 5 0 0 0 - - -;
#X obj -74 294 / 100;
#X obj -108 405 *~;
#X obj -4 284 pack 0 0;
#X obj -4 311 line~;
#X obj 52 78 bng 15 250 50 0 empty empty empty 17 7 0 10 -262144 -1
-1;
#X msg -4 188 1 0;
#X obj 52 180 delay 3;
#X msg 52 208 0 10;
#X obj -110 202 osc~;
#X obj 636 12 inlet;
#X obj -110 120 loadbang;
#X msg -110 143 1500;
#X obj 173 158 loadbang;
#X msg 173 181 10258;
#X obj 247 141 loadbang;
#X obj 302 173 loadbang;
#X msg 302 196 10258;
#X obj -107 514 +~;
#X obj -50 403 delread~ hihat;
#X obj -106 560 delwrite~ hihat 100;
#X obj -51 463 *~;
#X floatatom 133 399 5 0 0 0 - - -;
#X obj 133 420 / 100;
#X floatatom 59 369 5 0 0 0 - - -;
#X msg 247 164 300;
#X text 29 464 <- for metallic sound;
#X obj -74 227 loadbang;
#X obj 59 324 loadbang;
#X msg 59 347 5;
#X obj 133 354 loadbang;
#X msg 133 377 86;
#X text -114 -14 it sort of looks like a weird dog \, with the bangs
as eyes \, and the envelopes as ears;
#X msg -74 250 10;
#X connect 0 0 15 0;
#X connect 1 0 4 0;
#X connect 2 0 3 0;
#X connect 3 0 11 1;
#X connect 4 0 13 0;
#X connect 4 0 14 0;
#X connect 4 0 29 0;
#X connect 5 0 10 0;
#X connect 5 0 10 1;
#X connect 6 0 5 1;
#X connect 7 0 6 0;
#X connect 8 0 7 0;
#X connect 9 0 8 0;
#X connect 11 0 5 0;
#X connect 12 0 15 1;
#X connect 13 0 2 0;
#X connect 14 0 18 0;
#X connect 15 0 19 0;
#X connect 16 0 17 0;
#X connect 17 0 15 2;
#X connect 18 0 2 0;
#X connect 19 0 11 0;
#X connect 20 0 19 1;
#X connect 21 0 20 0;
#X connect 22 0 26 0;
#X connect 23 0 33 0;
#X connect 24 0 25 0;
#X connect 25 0 22 1;
#X connect 26 0 42 0;
#X connect 27 0 28 0;
#X connect 28 0 26 1;
#X connect 29 0 30 0;
#X connect 29 0 31 0;
#X connect 30 0 27 0;
#X connect 31 0 32 0;
#X connect 32 0 27 0;
#X connect 33 0 22 0;
#X connect 34 0 23 0;
#X connect 35 0 36 0;
#X connect 36 0 23 0;
#X connect 37 0 38 0;
#X connect 38 0 12 0;
#X connect 39 0 49 0;
#X connect 40 0 41 0;
#X connect 41 0 21 0;
#X connect 42 0 44 0;
#X connect 42 0 5 0;
#X connect 43 0 45 0;
#X connect 45 0 42 1;
#X connect 46 0 47 0;
#X connect 47 0 45 1;
#X connect 48 0 43 0;
#X connect 49 0 16 0;
#X connect 51 0 57 0;
#X connect 52 0 53 0;
#X connect 53 0 48 0;
#X connect 54 0 55 0;
#X connect 55 0 46 0;
#X connect 57 0 24 0;
#X restore 710 499 pd hihatclosed;
#X floatatom 764 455 5 0 0 0 - - -;
#X obj 710 465 bng 15 250 50 0 empty empty empty 17 7 0 10 -262144
-1 -1;
#N canvas 0 0 450 300 (subpatch) 0;
#X array hihatclosed 32 float 3;
#A 0 0 0 1 0 0 1 0 0 1 0 1 0 0 0 1 0 0 1 0 0 1 0 1 0 1 1 0 0 0 0 1
0;
#X coords 0 1 32 0 200 20 1 0 0;
#X restore 636 71 graph;
#X floatatom 819 477 5 0 0 0 - - -;
#X text 820 458 pitch;
#X text 761 435 volume;
#X floatatom 710 394 5 0 0 0 - - -;
#X obj 710 413 select 1;
#X obj 710 372 tabread hihatclosed;
#X obj 61 28 hradio 15 1 0 2 empty empty empty 0 -8 0 10 -262144 -1
-1 1;
#X obj 61 48 tabwrite hihatclosed;
#N canvas 0 0 1366 686 crash 0;
#N canvas 78 0 1280 738 crashvoice 0;
#X obj 131 68 inlet;
#X obj 131 213 osc~;
#X obj 231 512 +~;
#X obj 232 614 delwrite~ crashline 500;
#X floatatom 131 168 5 0 0 0 - - -;
#X obj 544 617 dac~;
#X obj 537 398 / 100;
#X obj 131 307 *~;
#X obj 227 277 line~;
#X obj 227 245 pack 0 0;
#X msg 227 193 1 0;
#X obj 227 46 bng 15 250 50 0 empty empty empty 17 7 0 10 -262144 -1
-1;
#X obj 362 189 noise~;
#X obj 526 193 line~;
#X obj 526 166 pack 0 0;
#X msg 526 119 1 0;
#X obj 363 245 *~;
#X obj 53 216 / 100;
#X floatatom 53 241 5 0 0 0 - - -;
#X floatatom 537 305 5 0 0 0 - - -;
#X floatatom 537 421 5 0 0 0 - - -;
#X obj 334 458 *~;
#X obj 537 375 * -1;
#X obj 544 582 *~;
#X obj 684 524 line~;
#X obj 684 498 pack 0 30;
#X obj 684 475 dbtorms;
#X floatatom 685 453 5 0 0 0 - - -;
#X obj 227 16 inlet;
#X obj 685 427 inlet;
#X obj 131 442 *~;
#X obj 182 412 / 100;
#X floatatom 182 391 5 0 0 0 - - -;
#X obj 339 337 *~;
#X obj 425 313 / 100;
#X floatatom 425 294 5 0 0 0 - - -;
#X obj 537 349 - 99;
#X obj 182 343 loadbang;
#X msg 182 367 50;
#X obj 426 248 loadbang;
#X obj 537 325 * 1.2;
#X obj 53 275 s freq1;
#X obj 537 281 r freq1;
#X msg 285 194 0 200;
#X obj 285 160 delay 50;
#X obj 333 397 delread~ crashline 20;
#X obj 580 87 delay 50;
#X msg 581 117 0 500;
#X msg 426 271 77;
#X connect 0 0 4 0;
#X connect 1 0 7 0;
#X connect 2 0 3 0;
#X connect 2 0 23 0;
#X connect 4 0 1 0;
#X connect 4 0 17 0;
#X connect 6 0 20 0;
#X connect 7 0 30 0;
#X connect 8 0 7 1;
#X connect 9 0 8 0;
#X connect 10 0 9 0;
#X connect 11 0 10 0;
#X connect 11 0 15 0;
#X connect 11 0 44 0;
#X connect 11 0 46 0;
#X connect 12 0 16 0;
#X connect 13 0 16 1;
#X connect 14 0 13 0;
#X connect 15 0 14 0;
#X connect 16 0 33 0;
#X connect 17 0 18 0;
#X connect 18 0 41 0;
#X connect 19 0 40 0;
#X connect 20 0 21 1;
#X connect 21 0 2 0;
#X connect 22 0 6 0;
#X connect 23 0 5 0;
#X connect 23 0 5 1;
#X connect 24 0 23 1;
#X connect 25 0 24 0;
#X connect 26 0 25 0;
#X connect 27 0 26 0;
#X connect 28 0 11 0;
#X connect 29 0 27 0;
#X connect 30 0 2 0;
#X connect 31 0 30 1;
#X connect 32 0 31 0;
#X connect 33 0 23 0;
#X connect 34 0 33 1;
#X connect 35 0 34 0;
#X connect 36 0 22 0;
#X connect 37 0 38 0;
#X connect 38 0 32 0;
#X connect 39 0 48 0;
#X connect 40 0 36 0;
#X connect 42 0 19 0;
#X connect 43 0 9 0;
#X connect 44 0 43 0;
#X connect 45 0 21 0;
#X connect 46 0 47 0;
#X connect 47 0 14 0;
#X connect 48 0 35 0;
#X restore 292 557 pd crashvoice;
#X obj 292 227 inlet;
#X floatatom 292 258 5 0 0 0 - - -;
#X obj 206 227 inlet;
#X obj 206 263 bng 15 250 50 0 empty empty empty 17 7 0 10 -262144
-1 -1;
#X floatatom 548 117 5 0 0 0 - - -;
#X obj 558 174 * 1.1;
#X obj 609 172 * 1.2;
#X obj 658 172 * 1.3;
#X obj 704 173 * 1.4;
#X obj 752 173 * 1.5;
#N canvas 0 0 1366 686 crashvoice1 0;
#X obj 131 68 inlet;
#X obj 131 213 osc~;
#X obj 231 512 +~;
#X floatatom 131 168 5 0 0 0 - - -;
#X obj 544 617 dac~;
#X obj 537 398 / 100;
#X obj 131 307 *~;
#X obj 227 277 line~;
#X obj 227 245 pack 0 0;
#X msg 227 193 1 0;
#X msg 285 194 0 100;
#X obj 227 46 bng 15 250 50 0 empty empty empty 17 7 0 10 -262144 -1
-1;
#X obj 417 165 noise~;
#X obj 526 193 line~;
#X obj 526 166 pack 0 0;
#X msg 526 119 1 0;
#X msg 580 117 0 100;
#X obj 363 245 *~;
#X obj 53 216 / 100;
#X floatatom 53 241 5 0 0 0 - - -;
#X floatatom 537 305 5 0 0 0 - - -;
#X floatatom 537 421 5 0 0 0 - - -;
#X obj 334 458 *~;
#X obj 537 375 * -1;
#X obj 285 160 delay 15;
#X obj 544 582 *~;
#X obj 684 524 line~;
#X obj 684 498 pack 0 30;
#X obj 684 475 dbtorms;
#X floatatom 685 453 5 0 0 0 - - -;
#X obj 227 16 inlet;
#X obj 685 427 inlet;
#X obj 580 87 delay 10;
#X obj 131 442 *~;
#X obj 182 412 / 100;
#X floatatom 182 391 5 0 0 0 - - -;
#X obj 339 337 *~;
#X obj 425 313 / 100;
#X floatatom 425 294 5 0 0 0 - - -;
#X obj 537 349 - 99;
#X obj 182 343 loadbang;
#X msg 182 367 50;
#X obj 426 248 loadbang;
#X msg 426 271 75;
#X obj 333 397 delread~ crashline1 22;
#X obj 232 614 delwrite~ crashline1 500;
#X obj 537 325 * 1.2;
#X obj 53 275 s freq2;
#X obj 537 281 r freq2;
#X connect 0 0 3 0;
#X connect 1 0 6 0;
#X connect 2 0 25 0;
#X connect 2 0 45 0;
#X connect 3 0 1 0;
#X connect 3 0 18 0;
#X connect 5 0 21 0;
#X connect 6 0 33 0;
#X connect 7 0 6 1;
#X connect 8 0 7 0;
#X connect 9 0 8 0;
#X connect 10 0 8 0;
#X connect 11 0 9 0;
#X connect 11 0 15 0;
#X connect 11 0 24 0;
#X connect 11 0 32 0;
#X connect 12 0 17 0;
#X connect 13 0 17 1;
#X connect 14 0 13 0;
#X connect 15 0 14 0;
#X connect 16 0 14 0;
#X connect 17 0 36 0;
#X connect 18 0 19 0;
#X connect 19 0 47 0;
#X connect 20 0 46 0;
#X connect 21 0 22 1;
#X connect 22 0 2 0;
#X connect 23 0 5 0;
#X connect 24 0 10 0;
#X connect 25 0 4 0;
#X connect 25 0 4 1;
#X connect 26 0 25 1;
#X connect 27 0 26 0;
#X connect 28 0 27 0;
#X connect 29 0 28 0;
#X connect 30 0 11 0;
#X connect 31 0 29 0;
#X connect 32 0 16 0;
#X connect 33 0 2 0;
#X connect 34 0 33 1;
#X connect 35 0 34 0;
#X connect 36 0 2 0;
#X connect 37 0 36 1;
#X connect 38 0 37 0;
#X connect 39 0 23 0;
#X connect 40 0 41 0;
#X connect 41 0 35 0;
#X connect 42 0 43 0;
#X connect 43 0 38 0;
#X connect 44 0 22 0;
#X connect 46 0 39 0;
#X connect 48 0 20 0;
#X restore 326 532 pd crashvoice1;
#N canvas 0 0 1366 686 crashvoice2 0;
#X obj 131 68 inlet;
#X obj 131 213 osc~;
#X obj 231 512 +~;
#X floatatom 131 168 5 0 0 0 - - -;
#X obj 544 617 dac~;
#X obj 537 398 / 100;
#X obj 131 307 *~;
#X obj 227 277 line~;
#X obj 227 245 pack 0 0;
#X msg 227 193 1 0;
#X msg 285 194 0 100;
#X obj 227 46 bng 15 250 50 0 empty empty empty 17 7 0 10 -262144 -1
-1;
#X obj 417 165 noise~;
#X obj 526 193 line~;
#X obj 526 166 pack 0 0;
#X msg 526 119 1 0;
#X msg 580 117 0 100;
#X obj 363 245 *~;
#X obj 53 216 / 100;
#X floatatom 53 241 5 0 0 0 - - -;
#X floatatom 537 305 5 0 0 0 - - -;
#X floatatom 537 421 5 0 0 0 - - -;
#X obj 334 458 *~;
#X obj 537 375 * -1;
#X obj 285 160 delay 15;
#X obj 544 582 *~;
#X obj 684 524 line~;
#X obj 684 498 pack 0 30;
#X obj 684 475 dbtorms;
#X floatatom 685 453 5 0 0 0 - - -;
#X obj 227 16 inlet;
#X obj 685 427 inlet;
#X obj 580 87 delay 10;
#X obj 131 442 *~;
#X obj 182 412 / 100;
#X floatatom 182 391 5 0 0 0 - - -;
#X obj 339 337 *~;
#X obj 425 313 / 100;
#X floatatom 425 294 5 0 0 0 - - -;
#X obj 537 349 - 99;
#X obj 182 343 loadbang;
#X msg 182 367 50;
#X obj 426 248 loadbang;
#X msg 426 271 75;
#X obj 232 614 delwrite~ crashline2 500;
#X obj 333 397 delread~ crashline2 22;
#X obj 537 325 * 1.2;
#X obj 53 275 s freq3;
#X obj 537 281 r freq3;
#X connect 0 0 3 0;
#X connect 1 0 6 0;
#X connect 2 0 25 0;
#X connect 2 0 44 0;
#X connect 3 0 1 0;
#X connect 3 0 18 0;
#X connect 5 0 21 0;
#X connect 6 0 33 0;
#X connect 7 0 6 1;
#X connect 8 0 7 0;
#X connect 9 0 8 0;
#X connect 10 0 8 0;
#X connect 11 0 9 0;
#X connect 11 0 15 0;
#X connect 11 0 24 0;
#X connect 11 0 32 0;
#X connect 12 0 17 0;
#X connect 13 0 17 1;
#X connect 14 0 13 0;
#X connect 15 0 14 0;
#X connect 16 0 14 0;
#X connect 17 0 36 0;
#X connect 18 0 19 0;
#X connect 19 0 47 0;
#X connect 20 0 46 0;
#X connect 21 0 22 1;
#X connect 22 0 2 0;
#X connect 23 0 5 0;
#X connect 24 0 10 0;
#X connect 25 0 4 0;
#X connect 25 0 4 1;
#X connect 26 0 25 1;
#X connect 27 0 26 0;
#X connect 28 0 27 0;
#X connect 29 0 28 0;
#X connect 30 0 11 0;
#X connect 31 0 29 0;
#X connect 32 0 16 0;
#X connect 33 0 2 0;
#X connect 34 0 33 1;
#X connect 35 0 34 0;
#X connect 36 0 2 0;
#X connect 37 0 36 1;
#X connect 38 0 37 0;
#X connect 39 0 23 0;
#X connect 40 0 41 0;
#X connect 41 0 35 0;
#X connect 42 0 43 0;
#X connect 43 0 38 0;
#X connect 45 0 22 0;
#X connect 46 0 39 0;
#X connect 48 0 20 0;
#X restore 380 507 pd crashvoice2;
#N canvas 0 0 1366 686 crashvoice3 0;
#X obj 131 68 inlet;
#X obj 131 213 osc~;
#X obj 231 512 +~;
#X floatatom 131 168 5 0 0 0 - - -;
#X obj 544 617 dac~;
#X obj 537 398 / 100;
#X obj 131 307 *~;
#X obj 227 277 line~;
#X obj 227 245 pack 0 0;
#X msg 227 193 1 0;
#X msg 285 194 0 100;
#X obj 227 46 bng 15 250 50 0 empty empty empty 17 7 0 10 -262144 -1
-1;
#X obj 417 165 noise~;
#X obj 526 193 line~;
#X obj 526 166 pack 0 0;
#X msg 526 119 1 0;
#X msg 580 117 0 100;
#X obj 363 245 *~;
#X obj 53 216 / 100;
#X floatatom 53 241 5 0 0 0 - - -;
#X floatatom 537 305 5 0 0 0 - - -;
#X floatatom 537 421 5 0 0 0 - - -;
#X obj 334 458 *~;
#X obj 537 375 * -1;
#X obj 285 160 delay 15;
#X obj 544 582 *~;
#X obj 684 524 line~;
#X obj 684 498 pack 0 30;
#X obj 684 475 dbtorms;
#X floatatom 685 453 5 0 0 0 - - -;
#X obj 227 16 inlet;
#X obj 685 427 inlet;
#X obj 580 87 delay 10;
#X obj 131 442 *~;
#X obj 182 412 / 100;
#X floatatom 182 391 5 0 0 0 - - -;
#X obj 339 337 *~;
#X obj 425 313 / 100;
#X floatatom 425 294 5 0 0 0 - - -;
#X obj 537 349 - 99;
#X obj 182 343 loadbang;
#X msg 182 367 50;
#X obj 426 248 loadbang;
#X msg 426 271 75;
#X obj 232 614 delwrite~ crashline3 500;
#X obj 333 397 delread~ crashline3 22;
#X obj 537 325 * 1.2;
#X obj 53 275 s freq4;
#X obj 537 281 r freq4;
#X connect 0 0 3 0;
#X connect 1 0 6 0;
#X connect 2 0 25 0;
#X connect 2 0 44 0;
#X connect 3 0 1 0;
#X connect 3 0 18 0;
#X connect 5 0 21 0;
#X connect 6 0 33 0;
#X connect 7 0 6 1;
#X connect 8 0 7 0;
#X connect 9 0 8 0;
#X connect 10 0 8 0;
#X connect 11 0 9 0;
#X connect 11 0 15 0;
#X connect 11 0 24 0;
#X connect 11 0 32 0;
#X connect 12 0 17 0;
#X connect 13 0 17 1;
#X connect 14 0 13 0;
#X connect 15 0 14 0;
#X connect 16 0 14 0;
#X connect 17 0 36 0;
#X connect 18 0 19 0;
#X connect 19 0 47 0;
#X connect 20 0 46 0;
#X connect 21 0 22 1;
#X connect 22 0 2 0;
#X connect 23 0 5 0;
#X connect 24 0 10 0;
#X connect 25 0 4 0;
#X connect 25 0 4 1;
#X connect 26 0 25 1;
#X connect 27 0 26 0;
#X connect 28 0 27 0;
#X connect 29 0 28 0;
#X connect 30 0 11 0;
#X connect 31 0 29 0;
#X connect 32 0 16 0;
#X connect 33 0 2 0;
#X connect 34 0 33 1;
#X connect 35 0 34 0;
#X connect 36 0 2 0;
#X connect 37 0 36 1;
#X connect 38 0 37 0;
#X connect 39 0 23 0;
#X connect 40 0 41 0;
#X connect 41 0 35 0;
#X connect 42 0 43 0;
#X connect 43 0 38 0;
#X connect 45 0 22 0;
#X connect 46 0 39 0;
#X connect 48 0 20 0;
#X restore 429 480 pd crashvoice3;
#N canvas 0 0 1366 686 crashvoice4 0;
#X obj 131 68 inlet;
#X obj 131 213 osc~;
#X obj 231 512 +~;
#X floatatom 131 168 5 0 0 0 - - -;
#X obj 544 617 dac~;
#X obj 537 398 / 100;
#X obj 131 307 *~;
#X obj 227 277 line~;
#X obj 227 245 pack 0 0;
#X msg 227 193 1 0;
#X msg 285 194 0 100;
#X obj 227 46 bng 15 250 50 0 empty empty empty 17 7 0 10 -262144 -1
-1;
#X obj 417 165 noise~;
#X obj 526 193 line~;
#X obj 526 166 pack 0 0;
#X msg 526 119 1 0;
#X msg 580 117 0 100;
#X obj 363 245 *~;
#X obj 53 216 / 100;
#X floatatom 53 241 5 0 0 0 - - -;
#X floatatom 537 305 5 0 0 0 - - -;
#X floatatom 537 421 5 0 0 0 - - -;
#X obj 334 458 *~;
#X obj 537 375 * -1;
#X obj 285 160 delay 15;
#X obj 544 582 *~;
#X obj 684 524 line~;
#X obj 684 498 pack 0 30;
#X obj 684 475 dbtorms;
#X floatatom 685 453 5 0 0 0 - - -;
#X obj 227 16 inlet;
#X obj 685 427 inlet;
#X obj 580 87 delay 10;
#X obj 131 442 *~;
#X obj 182 412 / 100;
#X floatatom 182 391 5 0 0 0 - - -;
#X obj 339 337 *~;
#X obj 425 313 / 100;
#X floatatom 425 294 5 0 0 0 - - -;
#X obj 537 349 - 99;
#X obj 182 343 loadbang;
#X msg 182 367 50;
#X obj 426 248 loadbang;
#X msg 426 271 75;
#X obj 333 397 delread~ crashline4 22;
#X obj 232 614 delwrite~ crashline4 500;
#X obj 537 325 * 1.2;
#X obj 53 273 s freq5;
#X obj 537 281 r freq5;
#X connect 0 0 3 0;
#X connect 1 0 6 0;
#X connect 2 0 25 0;
#X connect 2 0 45 0;
#X connect 3 0 1 0;
#X connect 3 0 18 0;
#X connect 5 0 21 0;
#X connect 6 0 33 0;
#X connect 7 0 6 1;
#X connect 8 0 7 0;
#X connect 9 0 8 0;
#X connect 10 0 8 0;
#X connect 11 0 9 0;
#X connect 11 0 15 0;
#X connect 11 0 24 0;
#X connect 11 0 32 0;
#X connect 12 0 17 0;
#X connect 13 0 17 1;
#X connect 14 0 13 0;
#X connect 15 0 14 0;
#X connect 16 0 14 0;
#X connect 17 0 36 0;
#X connect 18 0 19 0;
#X connect 19 0 47 0;
#X connect 20 0 46 0;
#X connect 21 0 22 1;
#X connect 22 0 2 0;
#X connect 23 0 5 0;
#X connect 24 0 10 0;
#X connect 25 0 4 0;
#X connect 25 0 4 1;
#X connect 26 0 25 1;
#X connect 27 0 26 0;
#X connect 28 0 27 0;
#X connect 29 0 28 0;
#X connect 30 0 11 0;
#X connect 31 0 29 0;
#X connect 32 0 16 0;
#X connect 33 0 2 0;
#X connect 34 0 33 1;
#X connect 35 0 34 0;
#X connect 36 0 2 0;
#X connect 37 0 36 1;
#X connect 38 0 37 0;
#X connect 39 0 23 0;
#X connect 40 0 41 0;
#X connect 41 0 35 0;
#X connect 42 0 43 0;
#X connect 43 0 38 0;
#X connect 44 0 22 0;
#X connect 46 0 39 0;
#X connect 48 0 20 0;
#X restore 481 456 pd crashvoice4;
#N canvas 0 0 1366 686 crashvoice5 0;
#X obj 131 68 inlet;
#X obj 131 213 osc~;
#X obj 231 512 +~;
#X floatatom 131 168 5 0 0 0 - - -;
#X obj 544 617 dac~;
#X obj 537 398 / 100;
#X obj 131 307 *~;
#X obj 227 277 line~;
#X obj 227 245 pack 0 0;
#X msg 227 193 1 0;
#X msg 285 194 0 100;
#X obj 227 46 bng 15 250 50 0 empty empty empty 17 7 0 10 -262144 -1
-1;
#X obj 417 165 noise~;
#X obj 526 193 line~;
#X obj 526 166 pack 0 0;
#X msg 526 119 1 0;
#X msg 580 117 0 100;
#X obj 363 245 *~;
#X obj 53 216 / 100;
#X floatatom 53 241 5 0 0 0 - - -;
#X floatatom 537 305 5 0 0 0 - - -;
#X floatatom 537 421 5 0 0 0 - - -;
#X obj 334 458 *~;
#X obj 537 375 * -1;
#X obj 285 160 delay 15;
#X obj 544 582 *~;
#X obj 684 524 line~;
#X obj 684 498 pack 0 30;
#X obj 684 475 dbtorms;
#X floatatom 685 453 5 0 0 0 - - -;
#X obj 227 16 inlet;
#X obj 685 427 inlet;
#X obj 580 87 delay 10;
#X obj 131 442 *~;
#X obj 182 412 / 100;
#X floatatom 182 391 5 0 0 0 - - -;
#X obj 339 337 *~;
#X obj 425 313 / 100;
#X floatatom 425 294 5 0 0 0 - - -;
#X obj 537 349 - 99;
#X obj 182 343 loadbang;
#X msg 182 367 50;
#X obj 426 248 loadbang;
#X msg 426 271 75;
#X obj 232 614 delwrite~ crashline5 500;
#X obj 333 397 delread~ crashline5 22;
#X obj 537 325 * 1.2;
#X obj 53 275 s freq6;
#X obj 537 281 r freq6;
#X connect 0 0 3 0;
#X connect 1 0 6 0;
#X connect 2 0 25 0;
#X connect 2 0 44 0;
#X connect 3 0 1 0;
#X connect 3 0 18 0;
#X connect 5 0 21 0;
#X connect 6 0 33 0;
#X connect 7 0 6 1;
#X connect 8 0 7 0;
#X connect 9 0 8 0;
#X connect 10 0 8 0;
#X connect 11 0 9 0;
#X connect 11 0 15 0;
#X connect 11 0 24 0;
#X connect 11 0 32 0;
#X connect 12 0 17 0;
#X connect 13 0 17 1;
#X connect 14 0 13 0;
#X connect 15 0 14 0;
#X connect 16 0 14 0;
#X connect 17 0 36 0;
#X connect 18 0 19 0;
#X connect 19 0 47 0;
#X connect 20 0 46 0;
#X connect 21 0 22 1;
#X connect 22 0 2 0;
#X connect 23 0 5 0;
#X connect 24 0 10 0;
#X connect 25 0 4 0;
#X connect 25 0 4 1;
#X connect 26 0 25 1;
#X connect 27 0 26 0;
#X connect 28 0 27 0;
#X connect 29 0 28 0;
#X connect 30 0 11 0;
#X connect 31 0 29 0;
#X connect 32 0 16 0;
#X connect 33 0 2 0;
#X connect 34 0 33 1;
#X connect 35 0 34 0;
#X connect 36 0 2 0;
#X connect 37 0 36 1;
#X connect 38 0 37 0;
#X connect 39 0 23 0;
#X connect 40 0 41 0;
#X connect 41 0 35 0;
#X connect 42 0 43 0;
#X connect 43 0 38 0;
#X connect 45 0 22 0;
#X connect 46 0 39 0;
#X connect 48 0 20 0;
#X restore 530 434 pd crashvoice5;
#X obj 328 321 * 1.1;
#X obj 380 321 * 3.1;
#X obj 431 323 4.3;
#X obj 481 321 5.7;
#X obj 529 322 * 7.12;
#X text -285 162 the idea here was to make the higher frequencies louder
but die out faster \, and have the lower frequencies last longer \,
which should be a very crude version of how the differing frequencies
in a crash act. However \, the best I could get was this \, which I
didn't find bad though it definitely was what I was looking for.;
#X obj 548 91 inlet;
#X connect 1 0 2 0;
#X connect 2 0 0 0;
#X connect 2 0 16 0;
#X connect 2 0 17 0;
#X connect 2 0 18 0;
#X connect 2 0 19 0;
#X connect 2 0 20 0;
#X connect 3 0 4 0;
#X connect 4 0 0 1;
#X connect 4 0 11 1;
#X connect 4 0 12 1;
#X connect 4 0 13 1;
#X connect 4 0 14 1;
#X connect 4 0 15 1;
#X connect 5 0 6 0;
#X connect 5 0 7 0;
#X connect 5 0 8 0;
#X connect 5 0 9 0;
#X connect 5 0 10 0;
#X connect 5 0 0 2;
#X connect 6 0 11 2;
#X connect 7 0 12 2;
#X connect 8 0 13 2;
#X connect 9 0 14 2;
#X connect 10 0 15 2;
#X connect 16 0 11 0;
#X connect 17 0 12 0;
#X connect 18 0 13 0;
#X connect 19 0 14 0;
#X connect 20 0 15 0;
#X connect 22 0 5 0;
#X restore 248 506 pd crash;
#X obj 248 441 bng 15 250 50 0 empty empty empty 17 7 0 10 -262144
-1 -1;
#X floatatom 278 450 5 0 0 0 - - -;
#X floatatom 309 482 5 0 0 0 - - -;
#X floatatom 248 391 5 0 0 0 - - -;
#X obj 248 410 select 1;
#X obj 248 367 tabread crash;
#X text 276 429 pitch;
#X text 307 463 volume;
#N canvas 0 0 450 300 (subpatch) 0;
#X array crash 32 float 3;
#A 0 0 0 0 0 0 0 0 0 0 0 0 0 0 0 1 0 0 0 0 0 0 0 0 0 0 0 0 0 0 0 1
0;
#X coords 0 1 32 0 200 20 1 0 0;
#X restore 638 188 graph;
#X obj 62 164 hradio 15 1 0 2 empty empty empty 0 -8 0 10 -262144 -1
-1 1;
#X obj 62 183 tabwrite crash;
#X obj 479 123 route 1 9 17 25;
#N canvas 0 0 1366 686 rowclear 0;
#X obj 251 71 inlet;
#X obj 251 126 metro 5;
#X obj 251 107 tgl 15 0 empty empty empty 17 7 0 10 -262144 -1 -1 0
1;
#X msg 152 222 0;
#X obj 261 168 f;
#X obj 304 168 + 1;
#X obj 154 143 select 32;
#X msg 154 168 0;
#X obj 152 255 tabwrite hihatclosed;
#X obj 457 69 inlet;
#X obj 457 124 metro 5;
#X obj 457 105 tgl 15 0 empty empty empty 17 7 0 10 -262144 -1 -1 0
1;
#X msg 358 220 0;
#X obj 467 166 f;
#X obj 510 166 + 1;
#X obj 360 141 select 32;
#X msg 360 166 0;
#X obj 358 253 tabwrite snare;
#X obj 685 66 inlet;
#X obj 685 121 metro 5;
#X obj 685 102 tgl 15 0 empty empty empty 17 7 0 10 -262144 -1 -1 0
1;
#X msg 586 217 0;
#X obj 695 163 f;
#X obj 738 163 + 1;
#X obj 588 138 select 32;
#X msg 588 163 0;
#X obj 586 250 tabwrite kick;
#X obj 892 61 inlet;
#X obj 892 116 metro 5;
#X obj 892 97 tgl 15 0 empty empty empty 17 7 0 10 -262144 -1 -1 0
1;
#X msg 793 212 0;
#X obj 902 158 f;
#X obj 945 158 + 1;
#X obj 795 133 select 32;
#X msg 795 158 0;
#X obj 793 245 tabwrite crash;
#X connect 0 0 2 0;
#X connect 1 0 3 0;
#X connect 1 0 4 0;
#X connect 2 0 1 0;
#X connect 3 0 8 0;
#X connect 4 0 5 0;
#X connect 4 0 6 0;
#X connect 4 0 8 1;
#X connect 5 0 4 1;
#X connect 6 0 7 0;
#X connect 7 0 4 1;
#X connect 9 0 11 0;
#X connect 10 0 12 0;
#X connect 10 0 13 0;
#X connect 11 0 10 0;
#X connect 12 0 17 0;
#X connect 13 0 14 0;
#X connect 13 0 15 0;
#X connect 13 0 17 1;
#X connect 14 0 13 1;
#X connect 15 0 16 0;
#X connect 16 0 13 1;
#X connect 18 0 20 0;
#X connect 19 0 21 0;
#X connect 19 0 22 0;
#X connect 20 0 19 0;
#X connect 21 0 26 0;
#X connect 22 0 23 0;
#X connect 22 0 24 0;
#X connect 22 0 26 1;
#X connect 23 0 22 1;
#X connect 24 0 25 0;
#X connect 25 0 22 1;
#X connect 27 0 29 0;
#X connect 28 0 30 0;
#X connect 28 0 31 0;
#X connect 29 0 28 0;
#X connect 30 0 35 0;
#X connect 31 0 32 0;
#X connect 31 0 33 0;
#X connect 31 0 35 1;
#X connect 32 0 31 1;
#X connect 33 0 34 0;
#X connect 34 0 31 1;
#X restore 17 303 pd rowclear;
#X obj 17 284 tgl 15 0 empty empty empty 17 7 0 10 -262144 -1 -1 0
1;
#X obj 45 284 tgl 15 0 empty empty empty 17 7 0 10 -262144 -1 -1 0
1;
#X obj 73 284 tgl 15 0 empty empty empty 17 7 0 10 -262144 -1 -1 0
1;
#X obj 102 284 tgl 15 0 empty empty empty 17 7 0 10 -262144 -1 -1 0
1;
#X text 14 329 Row Clear: 1 hi hat 2 snare 3 kick 4 crash Remember
to turn off toggle when finished.;
#X text 19 266 1;
#X text 45 264 2;
#X text 75 265 3;
#X text 104 264 4;
#N canvas 0 0 450 300 (subpatch) 0;
#X array bassline 32 float 3;
#A 0 0 0 0 44 0 0 0 51 0 41 0 0 44 0 0 50 0 0 0 31 0 0 0 50 0 0 56
0 25 0 0 28;
#X coords 0 200 32 0 200 140 1 0 0;
#X restore 946 -91 graph;
#X obj 506 236 bng 25 250 50 0 empty empty empty 17 7 0 10 -258113
-1 -1;
#X obj 948 136 tabwrite bassline;
#X obj 225 232 s count;
#X obj 1081 85 r count;
#X obj 948 60 bng 15 250 50 0 empty empty empty 17 7 0 10 -262144 -1
-1;
#N canvas 578 245 450 300 clearbassline 0;
#X obj 83 49 inlet;
#X obj 83 78 tgl 15 0 empty empty empty 17 7 0 10 -262144 -1 -1 0 1
;
#X obj 83 109 metro 5;
#X obj 83 136 f;
#X obj 130 137 + 1;
#X obj -4 130 select 32;
#X msg -4 154 0;
#X obj 41 216 tabwrite bassline;
#X msg 41 186 0;
#X connect 0 0 1 0;
#X connect 1 0 2 0;
#X connect 2 0 3 0;
#X connect 2 0 8 0;
#X connect 3 0 4 0;
#X connect 3 0 5 0;
#X connect 3 0 7 1;
#X connect 4 0 3 1;
#X connect 5 0 6 0;
#X connect 6 0 3 1;
#X connect 8 0 7 0;
#X restore 1022 -118 pd clearbassline;
#X obj 1022 -142 tgl 15 0 empty empty empty 17 7 0 10 -262144 -1 -1
0 1;
#X obj 950 187 tabread bassline;
#X obj 950 213 mtof;
#X obj 950 238 osc~;
#X obj 950 161 r count;
#X obj 949 431 *~;
#X obj 1151 377 line~;
#X obj 1151 354 pack 0 30;
#X obj 1151 332 dbtorms;
#X floatatom 1151 312 5 0 0 0 - - -;
#X obj 949 467 dac~;
#X obj 948 108 + 25;
#X obj 948 77 random 35;
#X obj 950 292 clip~ -0.3 0.3;
#X msg 393 -14 100;
#X obj 393 -37 loadbang;
#X floatatom 560 272 10 0 0 1 - - -;
#X obj 849 231 print;
#X connect 1 0 0 1;
#X connect 2 0 0 2;
#X connect 3 0 0 0;
#X connect 4 0 15 0;
#X connect 5 0 6 0;
#X connect 6 0 13 0;
#X connect 7 0 10 1;
#X connect 8 0 9 0;
#X connect 9 0 12 0;
#X connect 9 0 15 1;
#X connect 9 0 30 1;
#X connect 9 0 43 1;
#X connect 9 0 55 1;
#X connect 10 0 8 0;
#X connect 11 0 10 0;
#X connect 12 0 5 0;
#X connect 12 0 31 0;
#X connect 12 0 41 0;
#X connect 12 0 50 0;
#X connect 12 0 56 0;
#X connect 12 0 70 0;
#X connect 13 0 1 0;
#X connect 18 0 17 0;
#X connect 19 0 17 1;
#X connect 22 0 17 2;
#X connect 25 0 26 0;
#X connect 26 0 68 0;
#X connect 27 0 30 0;
#X connect 28 0 29 0;
#X connect 29 0 18 0;
#X connect 31 0 28 0;
#X connect 33 0 32 1;
#X connect 34 0 32 0;
#X connect 36 0 32 2;
#X connect 39 0 40 0;
#X connect 40 0 34 0;
#X connect 41 0 39 0;
#X connect 42 0 43 0;
#X connect 45 0 44 0;
#X connect 46 0 44 1;
#X connect 47 0 44 2;
#X connect 48 0 49 0;
#X connect 49 0 45 0;
#X connect 50 0 48 0;
#X connect 54 0 55 0;
#X connect 56 0 25 0;
#X connect 56 1 25 0;
#X connect 56 2 25 0;
#X connect 56 3 25 0;
#X connect 58 0 57 0;
#X connect 59 0 57 1;
#X connect 60 0 57 2;
#X connect 61 0 57 3;
#X connect 68 0 90 0;
#X connect 71 0 69 1;
#X connect 72 0 86 0;
#X connect 74 0 73 0;
#X connect 75 0 76 0;
#X connect 76 0 77 0;
#X connect 77 0 87 0;
#X connect 78 0 75 0;
#X connect 79 0 84 0;
#X connect 79 0 84 1;
#X connect 80 0 79 1;
#X connect 81 0 80 0;
#X connect 82 0 81 0;
#X connect 83 0 82 0;
#X connect 85 0 69 0;
#X connect 86 0 85 0;
#X connect 87 0 79 0;
#X connect 88 0 7 0;
#X connect 89 0 88 0;
